<?xml version="1.0" encoding="UTF-8" standalone="no"?>
<!-- Created with Inkscape (http://www.inkscape.org/) -->

<svg
   xmlns:dc="http://purl.org/dc/elements/1.1/"
   xmlns:cc="http://creativecommons.org/ns#"
   xmlns:rdf="http://www.w3.org/1999/02/22-rdf-syntax-ns#"
   xmlns:svg="http://www.w3.org/2000/svg"
   xmlns="http://www.w3.org/2000/svg"
   xmlns:sodipodi="http://sodipodi.sourceforge.net/DTD/sodipodi-0.dtd"
   xmlns:inkscape="http://www.inkscape.org/namespaces/inkscape"
   width="1940.0001"
   height="1455"
   id="svg2951"
   version="1.1"
   inkscape:version="0.47 r22583"
   sodipodi:docname="19x.svg"
   inkscape:export-filename="/home/roktas/00010011/x/doc/misc/19x.png"
   inkscape:export-xdpi="14.845361"
   inkscape:export-ydpi="14.845361">
  <title
     id="title3104">19/X</title>
  <defs
     id="defs2953">
    <inkscape:perspective
       sodipodi:type="inkscape:persp3d"
       inkscape:vp_x="0 : 526.18109 : 1"
       inkscape:vp_y="0 : 1000 : 0"
       inkscape:vp_z="744.09448 : 526.18109 : 1"
       inkscape:persp3d-origin="372.04724 : 350.78739 : 1"
       id="perspective2959" />
    <inkscape:perspective
       id="perspective2938"
       inkscape:persp3d-origin="0.5 : 0.33333333 : 1"
       inkscape:vp_z="1 : 0.5 : 1"
       inkscape:vp_y="0 : 1000 : 0"
       inkscape:vp_x="0 : 0.5 : 1"
       sodipodi:type="inkscape:persp3d" />
    <inkscape:perspective
       id="perspective2884"
       inkscape:persp3d-origin="0.5 : 0.33333333 : 1"
       inkscape:vp_z="1 : 0.5 : 1"
       inkscape:vp_y="0 : 1000 : 0"
       inkscape:vp_x="0 : 0.5 : 1"
       sodipodi:type="inkscape:persp3d" />
    <inkscape:perspective
       id="perspective2922"
       inkscape:persp3d-origin="0.5 : 0.33333333 : 1"
       inkscape:vp_z="1 : 0.5 : 1"
       inkscape:vp_y="0 : 1000 : 0"
       inkscape:vp_x="0 : 0.5 : 1"
       sodipodi:type="inkscape:persp3d" />
  </defs>
  <sodipodi:namedview
     id="base"
     pagecolor="#ffffff"
     bordercolor="#666666"
     borderopacity="1.0"
     inkscape:pageopacity="0.0"
     inkscape:pageshadow="2"
     inkscape:zoom="0.35"
     inkscape:cx="1477.806"
     inkscape:cy="805.20858"
     inkscape:document-units="px"
     inkscape:current-layer="g2895"
     showgrid="false"
     inkscape:window-width="1920"
     inkscape:window-height="1005"
     inkscape:window-x="0"
     inkscape:window-y="25"
     inkscape:window-maximized="1" />
  <metadata
     id="metadata2956">
    <rdf:RDF>
      <cc:Work
         rdf:about="">
        <dc:format>image/svg+xml</dc:format>
        <dc:type
           rdf:resource="http://purl.org/dc/dcmitype/StillImage" />
        <dc:title>19/X</dc:title>
        <dc:date>22/01/2011</dc:date>
        <dc:creator>
          <cc:Agent>
            <dc:title>Recai Oktaş</dc:title>
          </cc:Agent>
        </dc:creator>
        <dc:rights>
          <cc:Agent>
            <dc:title />
          </cc:Agent>
        </dc:rights>
        <dc:publisher>
          <cc:Agent>
            <dc:title>19 tayfa</dc:title>
          </cc:Agent>
        </dc:publisher>
        <dc:identifier>19</dc:identifier>
        <dc:source>19X.svg</dc:source>
        <dc:language>Türkçe</dc:language>
        <dc:subject>
          <rdf:Bag>
            <rdf:li>19 19/X 19/x 00010011</rdf:li>
          </rdf:Bag>
        </dc:subject>
        <dc:description>19/X görseli</dc:description>
        <cc:license
           rdf:resource="http://creativecommons.org/licenses/by/3.0/" />
      </cc:Work>
      <cc:License
         rdf:about="http://creativecommons.org/licenses/by/3.0/">
        <cc:permits
           rdf:resource="http://creativecommons.org/ns#Reproduction" />
        <cc:permits
           rdf:resource="http://creativecommons.org/ns#Distribution" />
        <cc:requires
           rdf:resource="http://creativecommons.org/ns#Notice" />
        <cc:requires
           rdf:resource="http://creativecommons.org/ns#Attribution" />
        <cc:permits
           rdf:resource="http://creativecommons.org/ns#DerivativeWorks" />
      </cc:License>
    </rdf:RDF>
  </metadata>
  <g
     inkscape:label="Layer 1"
     inkscape:groupmode="layer"
     id="layer1"
     transform="translate(-250.00017,1028.7805)">
    <g
       id="g2895">
      <rect
         ry="57.917027"
         style="opacity:0.95;fill:#000000;fill-opacity:1"
         y="-1028.7805"
         x="250.00017"
         height="1455"
         width="1940.0001"
         id="rect2820"
         rx="0" />
      <g
         transform="matrix(1.0351207,0,0,1.0351207,49.128463,-481.77112)"
         style="font-size:779.11834717px;font-style:normal;font-variant:normal;font-weight:bold;font-stretch:normal;text-align:start;line-height:125%;writing-mode:lr-tb;text-anchor:start;fill:#cccccc;fill-opacity:1;stroke:none;font-family:Ubuntu Titling;-inkscape-font-specification:Ubuntu Titling Bold"
         id="text3605-0">
        <path
           d="m 1160.0942,378.67253 c -6.233,17.9197 4.6747,40.51416 30.3856,49.86357 25.7109,8.57029 48.3053,-2.33737 54.5383,-20.25708 l 171.406,-438.643627 c 6.233,-17.140587 -3.1165,-39.735045 -28.0482,-48.305338 -26.49,-9.349411 -50.6427,1.558254 -56.8757,18.698841 l -171.406,438.643634"
           style="line-height:125%;fill:#cccccc;font-family:Ubuntu Titling;-inkscape-font-specification:Ubuntu Titling Bold"
           id="path2967" />
      </g>
      <g
         transform="matrix(1.0351207,0,0,1.0351207,49.128463,-474.12686)"
         style="font-size:779.11834717px;font-style:normal;font-variant:normal;font-weight:bold;font-stretch:normal;text-align:start;line-height:125%;writing-mode:lr-tb;text-anchor:start;fill:#87afff;fill-opacity:0.94117647;stroke:none;font-family:Ubuntu Titling;-inkscape-font-specification:Ubuntu Titling Bold"
         id="text3601-6">
        <path
           d="m 471.71989,-82.298401 c -26.49,0 -44.40975,16.361511 -44.40975,42.072391 0,24.152644 17.91975,40.51415392 44.40975,40.51415392 l 76.35359,0 0,387.22181608 c 0,18.69882 17.91975,36.61856 46.7471,36.61856 25.71088,0 43.63063,-17.91974 43.63063,-36.61856 l 0,-433.189799 c 0,-18.698821 -17.91975,-36.618562 -43.63063,-36.618562 l -123.10069,0"
           style="line-height:125%;fill:#87afff;font-family:Ubuntu Titling;-inkscape-font-specification:Ubuntu Titling Bold"
           id="path2970" />
        <path
           d="M 908.02615,-90.089584 C 787.26293,-93.206055 735.841,1.0673355 735.841,74.304387 l 0,14.803248 c 0,89.598525 53.75926,157.381905 145.69513,158.161025 51.42176,0 88.0404,-17.14063 112.97216,-41.29327 l 5.45383,3.11647 0,15.58237 c 0,81.02822 -40.51422,117.64687 -98.94803,117.64687 -30.38559,0 -48.30536,-8.57031 -63.88771,-18.69884 -17.14058,-11.68677 -29.60651,-15.58237 -46.7471,-15.58237 -17.14058,0 -31.16473,11.6868 -31.16473,32.72297 0,42.85147 59.99219,83.36566 140.2413,83.36566 128.55435,0 190.88395,-94.27343 190.88395,-204.90812 l 0,-104.40186 c 0,-110.6346937 -53.7592,-204.908124 -182.31365,-204.908124 m 0.77912,261.783764 c -52.97999,0 -81.02831,-33.50213 -81.02831,-79.470071 l 0,-21.036195 c 0,-41.293232 28.04832,-79.4700719 81.02831,-79.4700719 52.98,0 84.14479,30.3856799 90.37773,94.2733199 -1.55824,55.317348 -45.18891,85.703018 -90.37773,85.703018"
           style="line-height:125%;fill:#87afff;font-family:Ubuntu Titling;-inkscape-font-specification:Ubuntu Titling Bold"
           id="path2972" />
      </g>
      <path
         d="m 1691.1089,-438.00781 c -11.2456,-15.26182 -37.753,-20.8846 -61.8506,-5.62278 -23.2943,13.65532 -27.3106,39.35944 -16.0651,54.62126 l 107.636,146.19218 -106.8327,142.979168 c -12.0488,16.065071 -7.2293,40.965937 17.6716,57.031012 22.4911,13.655313 48.9985,8.032537 59.4408,-8.032538 l 86.7514,-120.488062 86.7514,120.488062 c 10.4423,16.065075 36.9496,21.687851 59.4407,8.032538 24.9009,-16.065075 29.7204,-40.965941 17.6716,-57.031012 l -107.636,-142.979168 108.4393,-146.19218 c 11.2455,-15.26182 7.2293,-40.96594 -16.0651,-54.62126 -24.0976,-15.26182 -50.605,-9.63904 -61.8505,5.62278 l -86.7514,123.70108 -86.7514,-123.70108"
         style="font-size:72px;font-style:normal;font-variant:normal;font-weight:bold;font-stretch:normal;text-align:start;line-height:125%;writing-mode:lr-tb;text-anchor:start;fill:#ff0087;fill-opacity:1;stroke:none;font-family:Ubuntu Titling;-inkscape-font-specification:Ubuntu Titling Bold"
         id="path3024" />
      <g
         style="font-size:1007.87402344px;font-style:normal;font-variant:normal;font-weight:bold;font-stretch:normal;text-align:start;line-height:125%;writing-mode:lr-tb;text-anchor:start;fill:#cccccc;fill-opacity:1;stroke:none;font-family:Ubuntu Titling;-inkscape-font-specification:Ubuntu Titling Bold"
         id="text2834"
         transform="matrix(1.09375,0,0,1.09375,-164.6744,9.301355)">
        <path
           d="m 1713.8603,-489.93361 c 0,25.19682 25.1969,49.38582 65.5118,49.38582 36.2835,0 62.4882,-24.189 62.4882,-49.38582 l 0,-25.19685 c 0,-25.19683 -26.2047,-49.38583 -62.4882,-49.38583 -40.3149,0 -65.5118,24.189 -65.5118,49.38583 l 0,25.19685"
           style="fill:#cccccc;fill-opacity:1"
           id="path2845" />
      </g>
    </g>
  </g>
</svg>
